<svg width="18" height="17" viewBox="0 0 18 17" fill="none" xmlns="http://www.w3.org/2000/svg">
<path d="M0 17L1.26525 12.6345C0.484499 11.3567 0.0742498 9.90817 0.0749998 8.42279C0.0772498 3.77896 4.07849 0 8.99473 0C11.3805 0.000708333 13.62 0.878333 15.3045 2.47067C16.9882 4.063 17.9152 6.1795 17.9145 8.43058C17.9122 13.0751 13.911 16.8541 8.99473 16.8541C7.50223 16.8534 6.03149 16.4999 4.72874 15.8284L0 17ZM4.94774 14.3034C6.20474 15.0082 7.40473 15.4303 8.99173 15.431C13.0777 15.431 16.4062 12.2903 16.4085 8.42917C16.41 4.56025 13.0972 1.42375 8.99773 1.42233C4.90874 1.42233 1.5825 4.56308 1.581 8.4235C1.58025 9.99954 2.06925 11.1796 2.89049 12.4142L2.14125 14.9982L4.94774 14.3034ZM13.488 10.433C13.4325 10.3452 13.284 10.2928 13.0605 10.1873C12.8377 10.0817 11.742 9.57242 11.5372 9.50229C11.3332 9.43217 11.1847 9.39675 11.0355 9.60783C10.887 9.81821 10.4595 10.2928 10.3297 10.433C10.2 10.5733 10.0695 10.591 9.84673 10.4855C9.62398 10.3799 8.90548 10.1582 8.05423 9.44067C7.39198 8.8825 6.94423 8.19329 6.81448 7.98221C6.68473 7.77183 6.80098 7.65779 6.91198 7.55296C7.01248 7.45875 7.13473 7.30717 7.24648 7.18392C7.35973 7.06208 7.39648 6.97425 7.47148 6.83329C7.54573 6.69304 7.50898 6.56979 7.45273 6.46425C7.39648 6.35942 6.95098 5.32312 6.76573 4.90167C6.58424 4.49154 6.40049 4.54679 6.26399 4.54042L5.83649 4.53333C5.68799 4.53333 5.44649 4.58575 5.24249 4.79683C5.03849 5.00792 4.46249 5.5165 4.46249 6.55279C4.46249 7.58908 5.26124 8.58996 5.37224 8.73021C5.48399 8.87046 6.94348 10.9969 9.17923 11.9085C9.71098 12.1252 10.1265 12.2549 10.4497 12.3519C10.9837 12.512 11.4697 12.4893 11.8537 12.4355C12.282 12.3753 13.1722 11.9262 13.3582 11.4346C13.5442 10.9423 13.5442 10.5209 13.488 10.433Z" fill="#72C95E"/>
</svg>
