<svg width="18" height="19" viewBox="0 0 18 19" fill="none" xmlns="http://www.w3.org/2000/svg">
<path d="M12.7725 6.02051C12.9353 5.98962 13.0199 5.99814 13.0596 6.01465V6.01562C13.0683 6.01948 13.0729 6.02318 13.0742 6.02441L13.0762 6.02637C13.0785 6.02865 13.101 6.04981 13.1094 6.14258C13.1182 6.24033 13.1066 6.36318 13.083 6.51855C12.7436 8.75215 12.4044 10.9863 12.0645 13.2197V13.2207C12.0414 13.3734 12.0197 13.4918 11.9854 13.5889C11.9524 13.682 11.9188 13.7218 11.8945 13.7412C11.8569 13.7712 11.7497 13.8054 11.5908 13.7617H11.5898C11.4266 13.716 11.2686 13.6174 11.0391 13.4658H11.04L8.31738 11.6641C8.21543 11.5967 8.14685 11.5433 8.10547 11.4971C8.10276 11.4941 8.10077 11.4908 8.09863 11.4883C8.11281 11.4626 8.13562 11.4286 8.17383 11.3789L8.1748 11.3779C8.53531 10.9078 8.98194 10.503 9.47168 10.0742C9.95026 9.65523 10.4775 9.20754 10.9287 8.68457C11.0322 8.56467 11.1327 8.39138 11.1709 8.2002C11.1904 8.10231 11.2005 7.96455 11.1514 7.81836C11.1105 7.69689 11.0356 7.58914 10.9316 7.50977L10.8184 7.44043C10.6072 7.33757 10.406 7.37288 10.2822 7.41602C10.1638 7.45731 10.0676 7.52232 10.0166 7.55762H10.0156C9.45625 7.94607 8.89703 8.33508 8.33789 8.72363C7.77875 9.11218 7.21937 9.50033 6.66016 9.88867C6.27837 10.1538 5.99145 10.3379 5.68848 10.3809H5.6875C5.41723 10.4194 5.12258 10.3465 4.72852 10.2305C4.41168 10.1374 4.09554 10.0417 3.78125 9.94336H3.78027C3.7175 9.92387 3.6695 9.90502 3.63086 9.89062C4.00535 9.71866 4.38511 9.55523 4.77148 9.38965C4.77982 9.38691 4.78755 9.38578 4.79297 9.38379C4.82715 9.3712 4.85498 9.35781 4.86914 9.35059C4.87698 9.34659 4.88407 9.3423 4.88867 9.33984H4.88672C4.899 9.33454 4.91243 9.3303 4.92676 9.32422C4.94253 9.31752 4.96032 9.30965 4.97852 9.30176L4.97754 9.30078C5.03261 9.27703 5.1035 9.24708 5.16406 9.2207C5.22531 9.19458 5.28683 9.16956 5.34766 9.14355C5.40968 9.11704 5.47227 9.09085 5.53418 9.06445V9.06348C5.7819 8.95757 6.02996 8.85093 6.27832 8.74414C6.52617 8.63818 6.77454 8.53283 7.02246 8.42676L10.7432 6.83496C10.9912 6.72891 11.2402 6.62277 11.4883 6.5166C11.7363 6.41048 11.9847 6.30417 12.2324 6.19824H12.2334C12.2708 6.18214 12.3068 6.16483 12.335 6.15137C12.3659 6.13662 12.3887 6.1253 12.4111 6.11523C12.4568 6.09476 12.4715 6.09149 12.4697 6.0918H12.4707C12.5443 6.07871 12.6133 6.06033 12.6602 6.04785L12.7725 6.02051Z" fill="white" stroke="white"/>
<circle cx="9" cy="9.5" r="8.35" stroke="white" stroke-width="1.3"/>
</svg>
