<svg width="11" height="9" viewBox="0 0 11 9" fill="none" xmlns="http://www.w3.org/2000/svg">
<path d="M0.285718 4.10259C0.310693 4.09011 0.33568 4.07825 0.36003 4.06701C0.783355 3.87095 1.2123 3.68739 1.64062 3.50382C1.66372 3.50382 1.70242 3.47697 1.72427 3.46823C1.75737 3.45387 1.79046 3.44014 1.82356 3.42577C1.88724 3.3983 1.95093 3.37145 2.01399 3.34398C2.14136 3.28966 2.2681 3.23534 2.39548 3.18102C2.6496 3.07238 2.90371 2.96374 3.15783 2.85447C3.66607 2.63719 4.17495 2.41929 4.68319 2.20201C5.19142 1.98472 5.70028 1.76681 6.20852 1.54953C6.71676 1.33225 7.22562 1.11435 7.73386 0.897066C8.2421 0.679784 8.75097 0.461874 9.25921 0.244592C9.37222 0.195891 9.4946 0.123469 9.61573 0.102241C9.7175 0.0841339 9.81677 0.049167 9.91916 0.0298114C10.1133 -0.00702658 10.3275 -0.022014 10.5136 0.0585301C10.5779 0.0866269 10.6372 0.125962 10.6865 0.175287C10.9225 0.408803 10.8894 0.792168 10.8395 1.12059C10.4917 3.40954 10.1439 5.69911 9.79554 7.98806C9.74809 8.30212 9.68315 8.64677 9.43528 8.84532C9.22549 9.01328 8.92703 9.03202 8.66792 8.96084C8.4088 8.88904 8.18029 8.73856 7.95614 8.59058C7.02645 7.97495 6.09614 7.35932 5.16645 6.74369C4.94542 6.59759 4.69942 6.40653 4.70192 6.14117C4.70317 5.98133 4.79869 5.83897 4.89609 5.71223C5.70403 4.65829 6.86973 3.93401 7.73699 2.92877C7.85936 2.78704 7.95552 2.53105 7.78756 2.44926C7.68766 2.40055 7.57277 2.46674 7.48161 2.5298C6.33526 3.32588 5.18955 4.12257 4.0432 4.91864C3.6692 5.17838 3.2771 5.44562 2.8263 5.50931C2.42296 5.56675 2.01712 5.45436 1.62688 5.33948C1.29971 5.24333 0.973155 5.14467 0.647857 5.0429C0.474906 4.98921 0.296334 4.93113 0.162719 4.80938C0.0291029 4.68763 -0.0476846 4.48283 0.0328595 4.3205C0.0834336 4.21873 0.181462 4.15442 0.284483 4.10197L0.285718 4.10259Z" fill="#72C95E"/>
</svg>
